<?xml version="1.0" standalone="no"?>
<svg xmlns:xlink="http://www.w3.org/1999/xlink" id="wave" style="transform:rotate(180deg); transition: 0.3s" viewBox="0 0 1440 100" version="1.1" xmlns="http://www.w3.org/2000/svg"><defs><linearGradient id="sw-gradient-0" x1="0" x2="0" y1="1" y2="0"><stop stop-color="rgba(255, 249, 234, 1)" offset="0%"/><stop stop-color="rgba(255, 249, 234, 1)" offset="100%"/></linearGradient></defs><path style="transform:translate(0, 0px); opacity:1" fill="url(#sw-gradient-0)" d="M0,40L34.3,36.7C68.6,33,137,27,206,21.7C274.3,17,343,13,411,16.7C480,20,549,30,617,40C685.7,50,754,60,823,63.3C891.4,67,960,63,1029,58.3C1097.1,53,1166,47,1234,43.3C1302.9,40,1371,40,1440,41.7C1508.6,43,1577,47,1646,43.3C1714.3,40,1783,30,1851,36.7C1920,43,1989,67,2057,71.7C2125.7,77,2194,63,2263,60C2331.4,57,2400,63,2469,68.3C2537.1,73,2606,77,2674,66.7C2742.9,57,2811,33,2880,25C2948.6,17,3017,23,3086,35C3154.3,47,3223,63,3291,60C3360,57,3429,33,3497,31.7C3565.7,30,3634,50,3703,60C3771.4,70,3840,70,3909,68.3C3977.1,67,4046,63,4114,63.3C4182.9,63,4251,67,4320,63.3C4388.6,60,4457,50,4526,40C4594.3,30,4663,20,4731,20C4800,20,4869,30,4903,35L4937.1,40L4937.1,100L4902.9,100C4868.6,100,4800,100,4731,100C4662.9,100,4594,100,4526,100C4457.1,100,4389,100,4320,100C4251.4,100,4183,100,4114,100C4045.7,100,3977,100,3909,100C3840,100,3771,100,3703,100C3634.3,100,3566,100,3497,100C3428.6,100,3360,100,3291,100C3222.9,100,3154,100,3086,100C3017.1,100,2949,100,2880,100C2811.4,100,2743,100,2674,100C2605.7,100,2537,100,2469,100C2400,100,2331,100,2263,100C2194.3,100,2126,100,2057,100C1988.6,100,1920,100,1851,100C1782.9,100,1714,100,1646,100C1577.1,100,1509,100,1440,100C1371.4,100,1303,100,1234,100C1165.7,100,1097,100,1029,100C960,100,891,100,823,100C754.3,100,686,100,617,100C548.6,100,480,100,411,100C342.9,100,274,100,206,100C137.1,100,69,100,34,100L0,100Z"/></svg>